<svg width="140" height="35" viewBox="0 0 140 35" fill="none" xmlns="http://www.w3.org/2000/svg">
<path d="M6.52344 34H1.08594C0.960938 34 0.898438 33.9219 0.898438 33.7656L0.992188 0.789062C0.992188 0.664063 1.05469 0.601562 1.17969 0.601562H7.03906C7.16406 0.601562 7.27344 0.664063 7.36719 0.789062L11.75 7.11719L16.1094 0.789062C16.2031 0.664063 16.3203 0.601562 16.4609 0.601562H22.3438C22.4844 0.601562 22.5547 0.664063 22.5547 0.789062L22.6484 33.7656C22.6484 33.9219 22.5859 34 22.4609 34H17.0234C16.8984 34 16.8359 33.9219 16.8359 33.7656L16.7891 9.27344L11.75 16.5859L6.75781 9.27344L6.71094 33.7656C6.71094 33.9219 6.64844 34 6.52344 34ZM42.3828 34H26.8672C26.7422 34 26.6797 33.9219 26.6797 33.7656L26.7266 0.789062C26.7266 0.664063 26.7891 0.601562 26.9141 0.601562H42.3359C42.4609 0.601562 42.5234 0.679687 42.5234 0.835938V6.20312C42.5234 6.32812 42.4609 6.39062 42.3359 6.39062H32.4922V13.8906H42.3359C42.4609 13.8906 42.5234 13.9531 42.5234 14.0781L42.5703 19.5156C42.5703 19.6406 42.5078 19.7031 42.3828 19.7031H32.4922V28.0938H42.3828C42.5078 28.0938 42.5703 28.1719 42.5703 28.3281V33.8125C42.5703 33.9375 42.5078 34 42.3828 34ZM55.6719 33.9531L47.0703 34C46.9141 34 46.8359 33.9219 46.8359 33.7656L46.9297 0.789062C46.9297 0.664063 46.9922 0.601562 47.1172 0.601562L56.0938 0.554688C57.875 0.507812 59.4844 0.914062 60.9219 1.77344C62.375 2.63281 63.5312 3.79687 64.3906 5.26562C65.2656 6.71875 65.7031 8.32813 65.7031 10.0938V23.875C65.7031 25.7188 65.2578 27.4062 64.3672 28.9375C63.4609 30.4531 62.2578 31.6641 60.7578 32.5703C59.2578 33.4609 57.5625 33.9219 55.6719 33.9531ZM56.0938 6.29688L52.7422 6.34375L52.6953 28.0938H55.6719C56.8594 28.0938 57.8594 27.6797 58.6719 26.8516C59.4844 26.0234 59.8906 25.0312 59.8906 23.875V10.0469C59.8906 9.03125 59.5156 8.14844 58.7656 7.39844C58.0156 6.63281 57.125 6.26563 56.0938 6.29688ZM75.1484 34H69.7109C69.5547 34 69.4766 33.9219 69.4766 33.7656L69.5234 0.789062C69.5234 0.664063 69.5859 0.601562 69.7109 0.601562H75.1016C75.2266 0.601562 75.2891 0.664063 75.2891 0.789062L75.3359 33.7656C75.3359 33.9219 75.2734 34 75.1484 34ZM77.9375 33.7656L83.8906 0.789062C83.9219 0.664063 84 0.601562 84.125 0.601562H91.0859C91.2109 0.601562 91.2891 0.664063 91.3203 0.789062L97.0391 33.7656C97.0547 33.9219 96.9922 34 96.8516 34H91.5312C91.375 34 91.2891 33.9219 91.2734 33.7656L90.7578 30.25H84.2188L83.7031 33.7656C83.6875 33.9219 83.6094 34 83.4688 34H78.125C78 34 77.9375 33.9219 77.9375 33.7656ZM87.3359 11.6406L85.1797 25.1172H89.7969L87.8281 11.6406L87.5469 9.85938L87.3359 11.6406ZM108.828 34.4688C107.094 34.4688 105.531 34.0391 104.141 33.1797C102.734 32.3203 101.602 31.1641 100.742 29.7109C99.8984 28.2578 99.4766 26.6328 99.4766 24.8359V9.625C99.4766 7.875 99.9062 6.28125 100.766 4.84375C101.609 3.39062 102.742 2.23438 104.164 1.375C105.586 0.5 107.141 0.0625 108.828 0.0625C110.594 0.0625 112.188 0.484375 113.609 1.32812C115.031 2.1875 116.156 3.33594 116.984 4.77344C117.828 6.21094 118.25 7.82812 118.25 9.625V11.8281C118.25 11.9531 118.172 12.0156 118.016 12.0156H112.625C112.5 12.0156 112.438 11.9531 112.438 11.8281V10C112.438 8.78125 112.094 7.77344 111.406 6.97656C110.719 6.17969 109.859 5.78125 108.828 5.78125C107.906 5.78125 107.086 6.16406 106.367 6.92969C105.648 7.69531 105.289 8.59375 105.289 9.625V24.8359C105.289 25.8828 105.641 26.7891 106.344 27.5547C107.047 28.3047 107.875 28.6797 108.828 28.6797C109.859 28.6797 110.719 28.3125 111.406 27.5781C112.094 26.8281 112.438 25.9141 112.438 24.8359V22.4688H109.086C108.914 22.4688 108.828 22.3906 108.828 22.2344V16.8672C108.828 16.7109 108.914 16.6328 109.086 16.6328H118.062C118.188 16.6328 118.25 16.7109 118.25 16.8672V24.8359C118.25 26.6328 117.828 28.2578 116.984 29.7109C116.125 31.1641 114.992 32.3203 113.586 33.1797C112.18 34.0391 110.594 34.4688 108.828 34.4688ZM130.531 34.4688C128.828 34.4688 127.258 34.0312 125.82 33.1562C124.398 32.2812 123.25 31.1172 122.375 29.6641C121.516 28.1953 121.086 26.5859 121.086 24.8359L121.133 9.625C121.133 7.84375 121.562 6.24219 122.422 4.82031C123.266 3.38281 124.406 2.23438 125.844 1.375C127.281 0.5 128.844 0.0625 130.531 0.0625C132.281 0.0625 133.852 0.492187 135.242 1.35156C136.648 2.21094 137.773 3.36719 138.617 4.82031C139.477 6.25781 139.906 7.85938 139.906 9.625L139.953 24.8359C139.953 26.5859 139.531 28.1875 138.688 29.6406C137.828 31.1094 136.688 32.2812 135.266 33.1562C133.844 34.0312 132.266 34.4688 130.531 34.4688ZM130.531 28.6797C131.5 28.6797 132.344 28.2891 133.062 27.5078C133.781 26.7109 134.141 25.8203 134.141 24.8359L134.094 9.625C134.094 8.5625 133.758 7.66406 133.086 6.92969C132.414 6.19531 131.562 5.82812 130.531 5.82812C129.547 5.82812 128.703 6.1875 128 6.90625C127.297 7.625 126.945 8.53125 126.945 9.625V24.8359C126.945 25.8828 127.297 26.7891 128 27.5547C128.703 28.3047 129.547 28.6797 130.531 28.6797Z" fill="#2CB67D"/>
</svg>
