
<svg width="25" height="25" viewBox="0 0 25 25" fill="none" xmlns="http://www.w3.org/2000/svg">
<path d="M9.3329 4.47265L5.47135 8.33333H1.04167C0.466146 8.33333 0 8.79948 0 9.375V15.625C0 16.2001 0.466146 16.6667 1.04167 16.6667H5.47135L9.3329 20.5273C9.98524 21.1797 11.1111 20.7214 11.1111 19.7908V5.2092C11.1111 4.27778 9.98437 3.82118 9.3329 4.47265ZM19.4596 2.25564C18.9748 1.9375 18.3233 2.07161 18.0052 2.55729C17.6866 3.0421 17.822 3.69357 18.3069 4.01172C21.1832 5.8993 22.8997 9.07248 22.8997 12.5004C22.8997 15.9284 21.1832 19.1016 18.3069 20.9891C17.822 21.3069 17.6866 21.9588 18.0052 22.4431C18.3108 22.908 18.957 23.0751 19.4596 22.7448C22.9284 20.4679 25 16.6376 25 12.5C25 8.36241 22.9284 4.53255 19.4596 2.25564ZM20.8333 12.5C20.8333 9.74262 19.4418 7.20746 17.1107 5.71875C16.625 5.40885 15.9809 5.55295 15.6732 6.04253C15.3655 6.53212 15.5091 7.18012 15.9948 7.49045C17.7201 8.59245 18.75 10.4648 18.75 12.5C18.75 14.5352 17.7201 16.4076 15.9948 17.5095C15.5091 17.8194 15.3655 18.4674 15.6732 18.9575C15.9557 19.4071 16.5898 19.6146 17.1107 19.2812C19.4418 17.7925 20.8333 15.2578 20.8333 12.5ZM14.6801 9.16363C14.1775 8.88889 13.5434 9.06988 13.2648 9.57378C12.9874 10.0777 13.171 10.7109 13.6749 10.9891C14.2352 11.2969 14.5833 11.8763 14.5833 12.5C14.5833 13.1241 14.2352 13.7031 13.6753 14.0108C13.1714 14.2891 12.9878 14.9223 13.2652 15.4262C13.5443 15.9323 14.1788 16.112 14.6806 15.8364C15.9058 15.1615 16.6671 13.8832 16.6671 12.4996C16.6671 11.1159 15.9058 9.83811 14.6801 9.16363Z" fill="white"/>
</svg>
