
<svg width="26" height="26" viewBox="0 0 26 26" fill="none" xmlns="http://www.w3.org/2000/svg">
<g clip-path="url(#clip0_41_2)">
<path d="M11.4296 3.74726L7.08533 8.09053H2.10193C1.45447 8.09053 0.930054 8.61494 0.930054 9.2624V16.2937C0.930054 16.9406 1.45447 17.4655 2.10193 17.4655H7.08533L11.4296 21.8088C12.1635 22.5427 13.4301 22.0271 13.4301 20.9802V4.57588C13.4301 3.52803 12.1625 3.01435 11.4296 3.74726ZM23.4711 12.778L25.6996 10.5495C26.0072 10.2419 26.0072 9.74287 25.6996 9.43525L24.5853 8.32099C24.2777 8.01338 23.7787 8.01338 23.4711 8.32099L21.2426 10.5495L19.014 8.32099C18.7064 8.01338 18.2074 8.01338 17.8998 8.32099L16.7855 9.43525C16.4779 9.74287 16.4779 10.2419 16.7855 10.5495L19.014 12.778L16.786 15.0061C16.4784 15.3137 16.4784 15.8127 16.786 16.1203L17.9003 17.2346C18.2079 17.5422 18.7069 17.5422 19.0145 17.2346L21.2426 15.0065L23.4711 17.2351C23.7787 17.5427 24.2777 17.5427 24.5853 17.2351L25.6996 16.1208C26.0072 15.8132 26.0072 15.3142 25.6996 15.0065L23.4711 12.778Z" fill="white"/>
</g>
<defs>
<clipPath id="clip0_41_2">
<rect width="25" height="25" fill="white" transform="translate(0.930054 0.278015)"/>
</clipPath>
</defs>
</svg>
